<svg data-name="Layer 1" xmlns="http://www.w3.org/2000/svg" xmlns:xlink="http://www.w3.org/1999/xlink" viewBox="0 0 460.99 468.09"><defs><linearGradient id="b" x1="166.76" y1="348.84" x2="624.79" y2="348.84" gradientUnits="userSpaceOnUse"><stop offset=".07" stop-color="#fdb714"/><stop offset=".16" stop-color="#f09217"/><stop offset=".26" stop-color="#e46e1b"/><stop offset=".37" stop-color="#da501d"/><stop offset=".48" stop-color="#d3391f"/><stop offset=".6" stop-color="#cd2921"/><stop offset=".73" stop-color="#ca1f22"/><stop offset=".91" stop-color="#c91c22"/></linearGradient><linearGradient id="c" x1="331.01" y1="277.45" x2="463.73" y2="130.76" gradientUnits="userSpaceOnUse"><stop offset=".13" stop-color="#fdb714"/><stop offset=".21" stop-color="#f09217"/><stop offset=".3" stop-color="#e46e1b"/><stop offset=".4" stop-color="#da501d"/><stop offset=".51" stop-color="#d3391f"/><stop offset=".62" stop-color="#cd2921"/><stop offset=".75" stop-color="#ca1f22"/><stop offset=".91" stop-color="#c91c22"/></linearGradient><linearGradient id="a" x1="362.45" y1="249.89" x2="362.61" y2="249.74" gradientUnits="userSpaceOnUse"><stop offset=".34" stop-color="#ed1c24"/><stop offset=".56" stop-color="#a30c0f"/><stop offset=".69" stop-color="#730101"/><stop offset=".9" stop-color="#510000"/></linearGradient><linearGradient id="d" x1="360.32" y1="168.24" x2="425.56" y2="103" xlink:href="#a"/><linearGradient id="e" x1="363.1" y1="246.79" x2="363.19" y2="246.7" xlink:href="#a"/></defs><path d="M230.86 344.25l.26.12a1.82 1.82 0 0 0-1.24-.66zM72.71 335.2h4.82l2.61-5.42h8.37l2.55 5.42h4.84l-11.59-23.29zm11.66-14.41c.15.41.29.77.43 1.1l2 4.17h-4.89l2-4.19q.22-.51.43-1.11zm20.23 1.39l-.46-.2c-2.36-1-3.55-2.07-3.55-3.14a1.94 1.94 0 0 1 .71-1.59 3.16 3.16 0 0 1 2.07-.62 3.27 3.27 0 0 1 1.64.4 4.2 4.2 0 0 1 1.34 1.32l.21.31 3.56-1.72-.14-.37a5.27 5.27 0 0 0-2.52-2.81 9.2 9.2 0 0 0-4.37-1 7.74 7.74 0 0 0-5.18 1.7 5.66 5.66 0 0 0-2 4.5 5.27 5.27 0 0 0 1.35 3.65 16.2 16.2 0 0 0 5.12 3.18l.7.31c2 .89 3 1.87 3 2.91a2.44 2.44 0 0 1-.81 1.94 3.38 3.38 0 0 1-2.3.74 4.59 4.59 0 0 1-2.59-.67 3.31 3.31 0 0 1-1.35-1.91l-.14-.47-3.72 1.7.09.36a6.2 6.2 0 0 0 2.59 3.79 8.74 8.74 0 0 0 5 1.31 8.43 8.43 0 0 0 5.73-1.87 6.43 6.43 0 0 0 2.16-5.08 5.35 5.35 0 0 0-1.36-3.72 13.9 13.9 0 0 0-4.78-2.95zm16.97 0l-.46-.2c-2.36-1-3.55-2.07-3.55-3.14a1.94 1.94 0 0 1 .71-1.59 3.16 3.16 0 0 1 2.07-.62 3.27 3.27 0 0 1 1.64.4 4.2 4.2 0 0 1 1.34 1.32l.21.31 3.56-1.72-.14-.37a5.27 5.27 0 0 0-2.52-2.81 9.21 9.21 0 0 0-4.37-1 7.74 7.74 0 0 0-5.18 1.7 5.66 5.66 0 0 0-2 4.5 5.27 5.27 0 0 0 1.35 3.65 16.2 16.2 0 0 0 5.12 3.18l.7.31c2 .89 3 1.87 3 2.91a2.44 2.44 0 0 1-.81 1.94 3.37 3.37 0 0 1-2.3.74 4.59 4.59 0 0 1-2.59-.67 3.31 3.31 0 0 1-1.35-1.91l-.14-.47-3.72 1.7.09.36a6.2 6.2 0 0 0 2.59 3.79 8.74 8.74 0 0 0 5 1.31 8.43 8.43 0 0 0 5.73-1.87 6.43 6.43 0 0 0 2.16-5.08 5.35 5.35 0 0 0-1.36-3.72 13.89 13.89 0 0 0-4.78-2.95zm8.9 13.03h13.44v-3.93h-8.9v-5.93h8.9v-3.88h-8.9v-4.4h8.9v-3.77h-13.44v21.91zm28.81-9.29l-.27.56q-.36.74-.63 1.34l-.35-.83c-.21-.5-.37-.85-.48-1.07l-7.18-14.34-5.73 23.63h4.27l2.49-10.69c.1-.38.18-.75.24-1.11.14.32.3.64.47 1l6.27 12.19 6.28-12c.18-.35.35-.71.49-1.06a9 9 0 0 0 .15.93l2.57 10.72h4.3l-5.87-23.64zm26.51-2.4a4.38 4.38 0 0 0 1.39-1.22 5 5 0 0 0 .92-3.07 6.17 6.17 0 0 0-.62-2.77 5.33 5.33 0 0 0-1.77-2 5.9 5.9 0 0 0-2.13-.87 19.32 19.32 0 0 0-3.68-.25h-6.11v21.91h6.14a20.52 20.52 0 0 0 4.71-.37 5.61 5.61 0 0 0 2.48-1.34 5.91 5.91 0 0 0 1.46-2.11 6.76 6.76 0 0 0 .51-2.59 5.81 5.81 0 0 0-1.23-3.78 4.91 4.91 0 0 0-2.07-1.54zm-7.55-6.51h1c2.19 0 3.13.34 3.53.62a2.33 2.33 0 0 1 .81 2.06 2 2 0 0 1-.88 1.88 7.14 7.14 0 0 1-3.47.6h-1v-5.16zm5.87 12.93a2.4 2.4 0 0 1-.9 1 3.42 3.42 0 0 1-1.34.44 20.71 20.71 0 0 1-2.81.14h-.82v-5.84h1.93a10.59 10.59 0 0 1 1.7.11 4.3 4.3 0 0 1 1.07.32 2.58 2.58 0 0 1 1.1 1 3 3 0 0 1 .38 1.53 2.88 2.88 0 0 1-.32 1.3zm12.03-16.64h-4.53v21.91h12.71v-3.93h-8.18V313.3zm9.96 21.91h13.44v-3.93h-8.9v-5.93h8.9v-3.88h-8.9v-4.4h8.9v-3.77H206.1v21.91zm16.51-21.91h4.53v21.91h-4.53zm5.28 21.9h4.82l2.61-5.42h8.39l2.55 5.42h4.84l-11.59-23.29zm11.66-14.41c.15.41.29.77.43 1.1l2 4.17h-4.89l2-4.19q.22-.51.43-1.11zm37.23-5.45a9.91 9.91 0 0 0-3.59-1.59 34.36 34.36 0 0 0-6.87-.46h-5.37v21.91h6.36a28 28 0 0 0 6-.47 9.91 9.91 0 0 0 3.51-1.59 9.5 9.5 0 0 0 3.1-3.74 12.12 12.12 0 0 0 1-5.15 12.28 12.28 0 0 0-1-5.17 9.37 9.37 0 0 0-3.14-3.74zm-1.14 12.25a6 6 0 0 1-1.78 2.36 5.3 5.3 0 0 1-2 1 16.68 16.68 0 0 1-3.7.3h-2.64v-14h2.19a19.48 19.48 0 0 1 4.06.3 5.43 5.43 0 0 1 2.11 1 6 6 0 0 1 1.79 2.36 9.64 9.64 0 0 1-.03 6.68zm8.3 7.62h13.44v-3.93h-8.9v-5.93h8.9v-3.88h-8.9v-4.4h8.9v-3.77h-13.44v21.91zm41.48-19.87a9.91 9.91 0 0 0-3.59-1.59 34.36 34.36 0 0 0-6.87-.46h-5.37v21.91h6.36a28 28 0 0 0 6-.47 9.91 9.91 0 0 0 3.51-1.59 9.5 9.5 0 0 0 3.1-3.74 12.12 12.12 0 0 0 1-5.15 12.28 12.28 0 0 0-1-5.17 9.37 9.37 0 0 0-3.14-3.74zm-1.14 12.25a6 6 0 0 1-1.78 2.36 5.3 5.3 0 0 1-2 1 16.68 16.68 0 0 1-3.7.3h-2.69v-14h2.21a19.48 19.48 0 0 1 4.06.3 5.43 5.43 0 0 1 2.11 1 6 6 0 0 1 1.79 2.36 9.64 9.64 0 0 1 0 6.68zm8.3 7.62h13.43v-3.93h-8.9v-5.93h8.9v-3.88h-8.9v-4.4h8.9v-3.77h-13.43v21.91zm31.13-8.71a5.48 5.48 0 0 1-1.28 4 6.46 6.46 0 0 1-7.77 0 5.48 5.48 0 0 1-1.28-4v-13.16h-4.49v13.53c0 3 .82 5.23 2.43 6.72s4 2.23 7.23 2.23 5.63-.75 7.25-2.24 2.45-3.75 2.45-6.71v-13.53h-4.54v13.21zm21.23-1.4a13.89 13.89 0 0 0-4.73-2.92l-.46-.2c-2.36-1-3.55-2.07-3.55-3.14a1.94 1.94 0 0 1 .71-1.59 3.16 3.16 0 0 1 2.07-.62 3.26 3.26 0 0 1 1.64.4 4.21 4.21 0 0 1 1.34 1.32l.21.31 3.56-1.72-.14-.37a5.27 5.27 0 0 0-2.52-2.81 9.21 9.21 0 0 0-4.37-1 7.74 7.74 0 0 0-5.18 1.7 5.66 5.66 0 0 0-2 4.5 5.27 5.27 0 0 0 1.35 3.65 16.19 16.19 0 0 0 5.12 3.18l.7.31c2 .89 3 1.87 3 2.91a2.44 2.44 0 0 1-.81 1.94 3.37 3.37 0 0 1-2.3.74 4.59 4.59 0 0 1-2.59-.67 3.31 3.31 0 0 1-1.35-1.91l-.14-.47-3.72 1.7.09.36a6.2 6.2 0 0 0 2.59 3.79 8.74 8.74 0 0 0 5 1.31 8.44 8.44 0 0 0 5.73-1.87 6.43 6.43 0 0 0 2.16-5.08 5.35 5.35 0 0 0-1.41-3.75zM87.25 460.59c0-.11-.07-.41-.12-.9s-.1-.75-.13-1a7.07 7.07 0 0 1-.24 1 8.1 8.1 0 0 1-.4 1l-3.65 7.39-3.67-7.63q-.23-.47-.4-.91t-.29-.87a8.71 8.71 0 0 1-.07.92 9.89 9.89 0 0 1-.19 1l-1.5 6.91h-2.1l3.32-14.62 4.14 8.85q.1.21.29.7l.47 1.21a15.43 15.43 0 0 1 .63-1.53l.17-.38 4-8.84 3.39 14.62h-2.12zm10.02 6.93v-14h2.28v14h-2.28zm10.06 0v-14.59l8.91 8.57q.36.36.74.78t.79.93v-9.72h2.11v14.57l-9.11-8.72q-.36-.35-.7-.75t-.65-.82v9.75h-2.1zm20.29 0v-14h2.28v14h-2.28zm9.24-2.81l1.82-.84a2.51 2.51 0 0 0 .95 1.43 3 3 0 0 0 1.76.49 2.25 2.25 0 0 0 1.61-.56 2 2 0 0 0 .6-1.51q0-1.24-2.05-2.2l-.44-.21a9.9 9.9 0 0 1-3.09-2 3.35 3.35 0 0 1-.77-2.24 3.59 3.59 0 0 1 1.16-2.78 4.35 4.35 0 0 1 3.05-1.06 5.15 5.15 0 0 1 2.6.6 3.15 3.15 0 0 1 1.45 1.72l-1.78.92a3 3 0 0 0-.92-1 2.17 2.17 0 0 0-1.15-.31 2.13 2.13 0 0 0-1.46.48 1.63 1.63 0 0 0-.54 1.28q0 1.27 2.38 2.36l.29.13a8.44 8.44 0 0 1 2.86 1.87 3.41 3.41 0 0 1 .78 2.29 4.13 4.13 0 0 1-1.25 3.17 4.77 4.77 0 0 1-3.39 1.17 4.9 4.9 0 0 1-2.94-.82 3.85 3.85 0 0 1-1.53-2.38zm20.6-9.29v12.09h-2.28v-12.09h-3.73v-1.94h9.72v1.94h-3.71zm9.95 12.1v-14h7.83v1.94h-5.53v3.52h5.55v2h-5.55v4.53h5.55v2h-7.85zm2.6-15.41l1.82-2.61h2.16l-2.8 2.61h-1.18zm14.47 9.13v6.28h-2.14v-14h3.18a10 10 0 0 1 2.17.18 3.4 3.4 0 0 1 1.32.6 3.33 3.33 0 0 1 1 1.31 4.33 4.33 0 0 1 .35 1.76 3.94 3.94 0 0 1-.81 2.64 3.58 3.58 0 0 1-2.4 1.14l4.83 6.38h-2.57l-4.7-6.29h-.26zm.14-1.77h.41a4.59 4.59 0 0 0 2.4-.42 1.71 1.71 0 0 0 .59-1.49 1.91 1.91 0 0 0-.64-1.63 4.18 4.18 0 0 0-2.36-.47h-.41v4zm13.25 8.05v-14h2.28v14h-2.28zm24.43-6.99a7.14 7.14 0 0 1-2.19 5.2 7.67 7.67 0 0 1-2.4 1.61 7.6 7.6 0 0 1-8.17-1.6 7.15 7.15 0 0 1-1.63-2.37 7.29 7.29 0 0 1 1.63-8.06 7.44 7.44 0 0 1 2.43-1.59 7.85 7.85 0 0 1 5.75 0 7.45 7.45 0 0 1 2.39 1.62 7.37 7.37 0 0 1 1.63 2.4 7.23 7.23 0 0 1 .56 2.79zm-2.38 0a5.32 5.32 0 0 0-.39-2 5.24 5.24 0 0 0-1.12-1.71 5 5 0 0 0-3.61-1.53 5 5 0 0 0-3.63 1.53 5.08 5.08 0 0 0-1.11 1.7 5.42 5.42 0 0 0-.38 2 5.31 5.31 0 0 0 .38 2 5.21 5.21 0 0 0 1.11 1.7 5 5 0 0 0 3.63 1.53 5 5 0 0 0 1.91-.41 5.18 5.18 0 0 0 1.66-1.14 5.27 5.27 0 0 0 1.55-3.67zm31.35.06c0-.11-.07-.41-.12-.9s-.1-.75-.13-1a7.06 7.06 0 0 1-.24 1 8.29 8.29 0 0 1-.4 1l-3.67 7.39-3.67-7.63q-.23-.47-.4-.91t-.29-.87a8.71 8.71 0 0 1-.07.92 9.89 9.89 0 0 1-.19 1l-1.5 6.91h-2.1l3.32-14.62 4.14 8.85q.1.21.29.7l.47 1.21a15.43 15.43 0 0 1 .63-1.53l.17-.38 4-8.84 3.39 14.62h-2.12zm19.24 6.93l-1.59-3.61h-5.56l-1.65 3.61h-2.4l6.79-14.58 6.78 14.58h-2.4zm-6.31-5.51h3.91l-1.44-3.2a14.151 14.151 0 0 1-.53-1.59c-.08.31-.16.59-.24.86s-.17.51-.26.73zm14.51 5.51v-14h3.08a20 20 0 0 1 4.22.3 5.68 5.68 0 0 1 2.14 1 5.85 5.85 0 0 1 1.84 2.38 8.32 8.32 0 0 1 .63 3.33 8.22 8.22 0 0 1-.63 3.31 6 6 0 0 1-1.84 2.38 5.72 5.72 0 0 1-2.09 1 16 16 0 0 1-3.66.3h-3.69zm2.28-2.06h1.92a10 10 0 0 0 2.37-.21 3.46 3.46 0 0 0 1.37-.71 4.22 4.22 0 0 0 1.19-1.69 7.16 7.16 0 0 0 0-4.7 4.22 4.22 0 0 0-1.19-1.69 3.53 3.53 0 0 0-1.42-.71 11.55 11.55 0 0 0-2.59-.21h-1.63v9.93zm16.72-11.97h2.25v8.52a4.09 4.09 0 0 0 .88 2.85 4.07 4.07 0 0 0 5.23 0 4.09 4.09 0 0 0 .88-2.85v-8.52h2.28v8.73a5.73 5.73 0 0 1-1.44 4.26 7.34 7.34 0 0 1-8.65 0 5.75 5.75 0 0 1-1.43-4.26v-8.73zm21.28 7.75v6.28h-2.14v-14h3.18a10 10 0 0 1 2.17.18 3.39 3.39 0 0 1 1.32.6 3.33 3.33 0 0 1 1 1.31 4.33 4.33 0 0 1 .35 1.76 3.94 3.94 0 0 1-.81 2.64 3.58 3.58 0 0 1-2.4 1.14l4.83 6.38h-2.58l-4.67-6.28h-.26zm.14-1.77h.41a4.6 4.6 0 0 0 2.41-.42 1.71 1.71 0 0 0 .59-1.49 1.91 1.91 0 0 0-.64-1.63 4.19 4.19 0 0 0-2.36-.47h-.41v4zm13.2 8.05v-14h7.83v1.94h-5.55v3.52h5.55v2h-5.55v4.53h5.55v2h-7.83zm14.98 0v-14h2.28v14h-2.28zm12.18-6.28v6.28h-2.14v-14h3.18a10 10 0 0 1 2.17.18 3.39 3.39 0 0 1 1.32.6 3.33 3.33 0 0 1 1 1.31 4.33 4.33 0 0 1 .35 1.76 3.94 3.94 0 0 1-.81 2.64 3.58 3.58 0 0 1-2.4 1.14l4.83 6.38h-2.58l-4.7-6.29h-.26zm.14-1.77h.41a4.6 4.6 0 0 0 2.41-.42 1.71 1.71 0 0 0 .59-1.49 1.91 1.91 0 0 0-.64-1.63 4.19 4.19 0 0 0-2.36-.47h-.41v4zm22.48 8.05l-1.59-3.61h-5.56l-1.63 3.61h-2.4l6.78-14.59 6.78 14.58h-2.4zm-6.31-5.51h3.91l-1.44-3.2a14.151 14.151 0 0 1-.53-1.59c-.08.31-.16.59-.24.86s-.17.51-.26.73z"/><path d="M166.76 356.61s25.11-1 59.17-15c0 0 55.76-21.21 89.82-21.73 0 0 49.8-1.55 80 30.52v10.35s-31.39-32.24-80.88-32.07c0 0-29.8 1-71.94 15.52.07-.01-51.48 17.58-76.17 12.41zm76.2 4.66c42.14-14.48 71.94-15.52 71.94-15.52 49.48-.16 80.88 32.07 80.88 32.07v-10.35c-30.22-32.07-80-30.52-80-30.52-34.05.52-89.82 21.73-89.82 21.73-34.05 14-59.17 15-59.17 15 24.66 5.17 76.21-12.42 76.21-12.42zm95.35-8.79s-15.32-4.66-28.95-2.07c0 0-58.32 22.24-71.09 21.21.01-.01 24.27 5.68 100.04-19.15zm286.48 4.14s-25.11-1-59.17-15c0 0-55.76-21.21-89.82-21.73 0 0-49.8-1.55-80 30.52v10.35s31.39-32.24 80.88-32.07c0 0 29.8 1 71.94 15.52-.03-.02 51.48 17.57 76.17 12.4zm0 17.07s-25.11-1-59.17-15c0 0-55.76-21.21-89.82-21.73 0 0-49.8-1.55-80 30.52v10.35s31.39-32.24 80.88-32.07c0 0 29.8 1 71.94 15.52-.03-.02 51.48 17.57 76.17 12.4zM483.65 350.4c-13.62-2.59-30.41 2.07-30.41 2.07 75.77 24.83 101.5 19.14 101.5 19.14" transform="translate(-166.29 -72.66)" fill="url(#b)"/><path d="M454.46 216.66s.64 9-10.53 24.84c-8.65 12.25-24.07 23.34-34.33 37.06 0-28.3 87-91.4 32.47-136.81 0 0 16.57 24.08-24.7 76.61-8.49 10.8-23.94 32.62-26.41 60.53 0 0-12.74-14.09 7.48-54.29l11-20.27s27.78-43.73 20.79-77.48c0 0-11.14-46.54-33.74-54.18 0 0 28.53 37 7.35 87.57 0 0-9.2 21.65-13.14 28.41-10.44 17.93-64.76 86.06 6.08 148.31 0 0 0-.26-.11-.75.1.25.2.5.31.75 0 0 7.29-36.86 25.25-50.74l12.59-12.53s35.46-28.97 19.64-57.03z" transform="translate(-166.29 -72.66)" fill="url(#c)"/><path d="M250.71 197.15l-2.41-6c-3.1 5.57-5 10.55-5 14.76a103.41 103.41 0 0 1 7.41-8.76zm-18.26-45.74l-.28.52c-20.23 40.2-7.48 54.29-7.48 54.29 1.41-16 7.09-30 13.27-41zm23.49 62.13c-7.72 6-13.47 16.18-17.51 25.88h29.22l-10.74-26.85zm-35.23-91.58l-22.8-56.91h-44.3L84.99 239.42h52l11.38-32.78h47.34c-5.84-36.44 14.76-68.74 25-84.68zm-58.54 45.12l12.78-36.81 14.31 36.81h-27.13z"/><path d="M362.55 249.69v.26z" transform="translate(-166.29 -72.66)" fill="url(#a)"/><path d="M399 76.46c3.63 23.69-22 51.81-33.93 63.49L387 194.62l-.1.15c1.56-2.44 2.89-4.5 3.84-6.14.48-.82 1-1.87 1.64-3.06-3.62-9.57-4.23-19.8-3.84-28.07l-7.91-19.79h11.7c12.25-26.1 13.18-42.63 11.36-52.39a81.8 81.8 0 0 0-4.69-8.86z" transform="translate(-166.29 -72.66)" fill="url(#d)"/><path d="M363.16 246.68v.14z" transform="translate(-166.29 -72.66)" fill="url(#e)"/><path d="M312.36 65.05h-47.31c.35 31.56-21.9 66.61-21.9 66.61l-1.28 2.35 6.23 15.57c1.06-1.42 2.06-2.72 3-3.89 9.89-12.59 16.45-23.54 20.72-32.92l-5.11-12.69h9.82c6.06-21-.78-31-.78-31 11.65 9.7 16.82 20.2 17.79 31h3.68c23.53 0 35.29 15.48 35.29 50.09 0 15.64-2 25.88-6.15 34.38q-8.43 17.08-29.14 19.13-15.17 0-27.44.18l14.23 35.56h8.88q43.49 0 63.07-23.45 18-21.63 18-65.8.03-77.12-61.6-85.12zm-74.81 22.51a101.09 101.09 0 0 0 6.57-22.51H214.3l15.78 39.44c3.73-8.15 7.47-16.93 7.47-16.93zM58.71 433.78l26.6-80h27.8l26.6 80v1h-18.07l-6.46-19.49H83.11l-6.35 19.49H58.4zm52.22-33.06l-6-18.17-4.93-15.87h-1.64l-4.82 16-6 18.06h23.43zm36.38-32.3h-23.53v-14.66h66v14.67h-23.75v66.34h-18.72v-66.35zm26.4 65.36l26.6-80h27.8l26.6 80v1h-18l-6.46-19.49h-32.09l-6.35 19.49h-18.1v-1zm52.22-33.06l-6-18.17-4.93-15.87h-1.64l-4.82 16-6 18.06h23.43zm95.05-45.38a28 28 0 0 1 8.21-9.63 15.68 15.68 0 0 1 8.87-3.17 22.76 22.76 0 0 1 5.42.66q2.68.66 5.31 1.42t5.25 1.42a22 22 0 0 0 5.37.66 15.16 15.16 0 0 0 4.93-.82 19.43 19.43 0 0 0 5.47-3.23l2.52 3.39a28.29 28.29 0 0 1-8.26 9.69 15.89 15.89 0 0 1-9 3.23 22 22 0 0 1-5.36-.66q-2.63-.66-5.25-1.42t-5.31-1.42a22.3 22.3 0 0 0-5.31-.66 15.67 15.67 0 0 0-5 .82 17.55 17.55 0 0 0-5.31 3.12zm100.93 80.52q-19.16 0-29.12-10.51t-10-31q0-20.69 10-31.2t29.12-10.51q19 0 29.06 10.56t10 31.14q0 20.47-10 31t-29.06 10.52zm0-15a27.78 27.78 0 0 0 9.31-1.37 13.06 13.06 0 0 0 6.18-4.49 20.7 20.7 0 0 0 3.45-8.16 60 60 0 0 0 1.1-12.48 57.4 57.4 0 0 0-1.15-12.42 21.31 21.31 0 0 0-3.56-8.26 13.64 13.64 0 0 0-6.18-4.6 26 26 0 0 0-9.14-1.42 26.49 26.49 0 0 0-9.19 1.42 13.74 13.74 0 0 0-6.24 4.54 20.25 20.25 0 0 0-3.5 8.26 61 61 0 0 0-1.11 12.46 60 60 0 0 0 1.09 12.48 20.66 20.66 0 0 0 3.45 8.16 13 13 0 0 0 6.18 4.49 27.76 27.76 0 0 0 9.31 1.39zm-117.47-.54h-29.11v-66.56h-18.72v81.01h43.35v-.99l4.48-13.46zm-254.47-.06q-2.36.27-4.71.38t-4.1.11a35.11 35.11 0 0 1-10.34-1.31 14.08 14.08 0 0 1-6.79-4.38 18.94 18.94 0 0 1-3.72-8.1 57.8 57.8 0 0 1-1.15-12.62 62.89 62.89 0 0 1 1.09-12.81 18.2 18.2 0 0 1 3.72-8.21 14.43 14.43 0 0 1 7-4.38 37.2 37.2 0 0 1 10.67-1.31c1 0 13 0 14.93.08l5.16-15c-10.15-.42-18.78-.26-22.39-.26q-19.81 0-29.56 10.29T0 394.34q0 21.24 10 31.47t30.65 10.23a70.94 70.94 0 0 0 9-.6 35.8 35.8 0 0 0 3.61-.71l4.87-15.62c-1 .21-2.17.4-3.55.57zm312.68-58.04a14.92 14.92 0 0 1-7.63 2.33 22 22 0 0 1-5.36-.66q-2.63-.66-5.25-1.42t-5.31-1.42a22.3 22.3 0 0 0-5.31-.66 15.54 15.54 0 0 0-4.15.58l-24.2 72.8v1h18.06l6.35-19.49h32.07l6.46 19.49h18.06v-1zm-28.43 38.5l6-18.06 4.82-16h1.67l4.93 15.87 6 18.17h-23.41z"/></svg>