<svg width="433" height="289" viewBox="0 0 433 289" fill="none" xmlns="http://www.w3.org/2000/svg">
<path d="M0.412109 268.84C0.412109 268.84 24.1101 267.896 56.2548 254.683C56.2548 254.683 108.879 234.666 141.024 234.175C141.024 234.175 188.024 232.712 216.525 262.979V272.747C216.525 272.747 186.9 242.32 140.193 242.48C140.193 242.48 112.069 243.424 72.2989 257.128C72.3649 257.118 23.7137 273.719 0.412109 268.84ZM72.3272 273.238C112.098 259.572 140.222 258.59 140.222 258.59C186.919 258.439 216.554 288.857 216.554 288.857V279.089C188.033 248.822 141.052 250.285 141.052 250.285C108.917 250.776 56.2831 270.793 56.2831 270.793C24.1479 284.006 0.440421 284.95 0.440421 284.95C23.7137 289.829 72.3649 273.228 72.3649 273.228L72.3272 273.238ZM162.315 264.942C162.315 264.942 147.857 260.544 134.993 262.988C134.993 262.988 79.9528 283.978 67.9009 283.006C67.9103 282.996 90.8061 288.366 162.315 264.933V264.942ZM432.686 268.849C432.686 268.849 408.988 267.905 376.843 254.693C376.843 254.693 324.219 234.675 292.074 234.185C292.074 234.185 245.074 232.722 216.573 262.988V272.756C216.573 272.756 246.197 242.329 292.904 242.49C292.904 242.49 321.029 243.434 360.799 257.137C360.771 257.118 409.384 273.719 432.686 268.84V268.849ZM432.686 284.959C432.686 284.959 408.988 284.016 376.843 270.803C376.843 270.803 324.219 250.785 292.074 250.295C292.074 250.295 245.074 248.832 216.573 279.098V288.866C216.573 288.866 246.197 258.439 292.904 258.6C292.904 258.6 321.029 259.544 360.799 273.247C360.771 273.228 409.384 289.829 432.686 284.95V284.959ZM299.482 262.979C286.628 260.535 270.783 264.933 270.783 264.933C342.292 288.366 366.575 282.996 366.575 282.996" fill="url(#paint0_linear_189_299)"/>
<path d="M271.934 136.759C271.934 136.759 272.538 145.253 261.996 160.203C253.833 171.764 239.28 182.23 229.597 195.179C229.597 168.47 311.704 108.918 260.241 66.0619C260.241 66.0619 275.879 88.7878 236.93 138.364C228.917 148.557 214.336 169.15 212.005 195.49C212.005 195.49 199.981 182.192 219.064 144.253L229.446 125.123C229.446 125.123 255.663 83.8519 249.067 51.9998C249.067 51.9998 238.553 8.07684 217.224 0.866455C217.224 0.866455 244.149 35.7858 224.16 83.5121C224.16 83.5121 215.478 103.945 211.759 110.325C201.906 127.246 150.641 191.545 217.498 250.295C217.498 250.295 217.498 250.049 217.394 249.587C217.488 249.823 217.582 250.059 217.686 250.295C217.686 250.295 224.566 215.507 241.516 202.408L253.398 190.583C253.398 190.583 286.864 163.242 271.934 136.759Z" fill="url(#paint1_linear_189_299)"/>
<path d="M236.58 186.921L234.306 181.258C231.38 186.515 229.587 191.215 229.587 195.188C231.763 192.305 234.098 189.545 236.58 186.921ZM219.347 143.753L219.083 144.244C199.99 182.183 212.023 195.481 212.023 195.481C213.354 180.38 218.715 167.168 224.547 156.786L219.347 143.753ZM241.516 202.389C234.23 208.052 228.804 217.659 224.991 226.814H252.568L242.432 201.474L241.516 202.389ZM208.267 115.959L186.749 62.249H144.94L80.1792 226.814H129.255L139.995 195.877H184.673C179.161 161.486 198.603 131.002 208.267 115.959ZM153.019 158.542L165.08 123.802L178.586 158.542H152.981H153.019Z" fill="black"/>
<path d="M219.593 4.44312C223.019 26.801 198.83 53.3397 187.571 64.3629L208.267 115.959L208.173 116.1C209.645 113.797 210.901 111.853 211.797 110.305C212.25 109.532 212.741 108.541 213.345 107.418C209.929 98.3857 209.353 88.731 209.721 80.926L202.256 62.2489H213.298C224.859 37.6165 225.737 22.0161 224.019 12.8049C222.716 9.92976 221.238 7.13726 219.593 4.44312Z" fill="url(#paint2_linear_189_299)"/>
<path d="M294.764 62.249H250.114C250.444 92.0343 229.446 125.113 229.446 125.113L228.238 127.331L234.117 142.026C235.118 140.686 236.061 139.459 236.949 138.354C246.282 126.472 252.473 116.138 256.503 107.286L251.681 95.3092H260.949C266.668 75.4901 260.212 66.0524 260.212 66.0524C271.207 75.2069 276.087 85.1165 277.002 95.3092H280.475C302.682 95.3092 313.781 109.919 313.781 142.582C313.781 157.343 311.893 167.007 307.976 175.029C302.672 185.776 293.505 191.794 280.475 193.083C270.93 193.083 262.298 193.14 254.578 193.253L268.008 226.814H276.389C303.752 226.814 323.593 219.437 335.912 204.682C347.237 191.073 352.9 170.373 352.9 142.582C352.919 94.0603 333.54 67.2824 294.764 62.249ZM224.16 83.4932C227.044 76.6763 229.125 69.547 230.361 62.249H202.218L217.111 99.4712C220.631 91.7795 224.16 83.4932 224.16 83.4932Z" fill="black"/>
<defs>
<linearGradient id="paint0_linear_189_299" x1="0.412109" y1="261.507" x2="432.686" y2="261.507" gradientUnits="userSpaceOnUse">
<stop offset="0.07" stop-color="#FDB714"/>
<stop offset="0.16" stop-color="#F09217"/>
<stop offset="0.26" stop-color="#E46E1B"/>
<stop offset="0.37" stop-color="#DA501D"/>
<stop offset="0.48" stop-color="#D3391F"/>
<stop offset="0.6" stop-color="#CD2921"/>
<stop offset="0.73" stop-color="#CA1F22"/>
<stop offset="0.91" stop-color="#C91C22"/>
</linearGradient>
<linearGradient id="paint1_linear_189_299" x1="155.426" y1="194.131" x2="280.683" y2="55.6899" gradientUnits="userSpaceOnUse">
<stop offset="0.13" stop-color="#FDB714"/>
<stop offset="0.21" stop-color="#F09217"/>
<stop offset="0.3" stop-color="#E46E1B"/>
<stop offset="0.4" stop-color="#DA501D"/>
<stop offset="0.51" stop-color="#D3391F"/>
<stop offset="0.62" stop-color="#CD2921"/>
<stop offset="0.75" stop-color="#CA1F22"/>
<stop offset="0.91" stop-color="#C91C22"/>
</linearGradient>
<linearGradient id="paint2_linear_189_299" x1="183.088" y1="91.0621" x2="244.659" y2="29.4907" gradientUnits="userSpaceOnUse">
<stop offset="0.34" stop-color="#ED1C24"/>
<stop offset="0.56" stop-color="#A30C0F"/>
<stop offset="0.69" stop-color="#730101"/>
<stop offset="0.9" stop-color="#510000"/>
</linearGradient>
</defs>
</svg>
