<svg width="300" height="300" viewBox="0 0 300 300" fill="none" xmlns="http://www.w3.org/2000/svg">
<path d="M230.297 210.284C228.935 205.151 224.955 203.984 223.233 202.389C220.406 199.763 220.55 196.728 216.68 181.976C214.42 173.091 211.657 164.342 208.404 155.771C203.591 143.442 196.089 128.921 186.831 119.415C181.749 114.198 176.985 111.789 177.885 112.922C179.141 114.503 191.164 122.391 202.453 146.261C209.729 161.643 214.38 178.895 218.354 195.828C220.805 206.273 224.603 203.271 228.176 208.143C229.844 210.419 230.39 213.227 230.546 212.09C230.544 211.479 230.46 210.872 230.297 210.284Z" fill="#191919"/>
<path d="M207.619 199.897C206.74 200.892 203.62 203.316 202.941 207.495C202.719 208.854 202.965 210.016 203.26 209.445C203.907 206.772 205.309 204.342 207.298 202.443C208.109 201.79 208.836 201.04 209.463 200.209C210.733 198.274 209.856 195.879 208.891 193.801C205.891 187.33 202.533 178.756 197.652 170.949C194.551 165.99 185.146 153.777 178.929 148.44C177.459 147.185 175.906 146.033 174.279 144.99C173.583 144.549 172.05 143.724 172.419 144.39C173.112 145.633 178.807 149.31 187.545 160.149C199.023 174.385 199.779 178.041 207.288 194.446C208.29 196.632 209.007 198.327 207.619 199.897Z" fill="#191919"/>
<path d="M215.85 219.878C216 220.166 216.399 220.272 216.765 219.9C217.21 219.461 217.531 218.912 217.695 218.309C218.113 216.876 218.338 215.395 218.365 213.903C218.443 212.202 218.119 210.506 217.42 208.953C217.286 208.754 217.108 208.588 216.901 208.466C216.631 208.371 216.285 208.577 216.231 209.091C216.154 210.591 216.7 211.659 216.651 213.914C216.588 216.954 215.448 219.107 215.85 219.878Z" fill="#191919"/>
<path d="M220.269 208.858C219.969 208.83 219.669 209.115 219.735 209.598C219.894 210.876 220.743 212.019 221.16 214.14C221.396 215.408 221.462 216.702 221.358 217.987C221.244 218.653 221.299 219.337 221.518 219.976C221.575 220.047 221.649 220.102 221.733 220.136C221.817 220.17 221.908 220.182 221.998 220.172C222.088 220.161 222.173 220.128 222.247 220.075C222.32 220.022 222.379 219.952 222.418 219.87C222.794 219.371 223.021 218.777 223.074 218.155C223.228 216.687 223.149 215.203 222.838 213.759C222.568 212.538 221.488 208.977 220.269 208.858Z" fill="#191919"/>
<path d="M224.208 211.275C225.848 213.642 225.824 215.643 226.556 216.105C226.633 216.148 226.719 216.173 226.808 216.176C226.896 216.179 226.984 216.16 227.064 216.122C227.143 216.084 227.213 216.027 227.266 215.957C227.32 215.886 227.355 215.804 227.37 215.717C227.548 215.155 227.556 214.553 227.394 213.987C227.004 212.658 226.399 211.402 225.603 210.269C224.8 209.116 223.817 208.1 222.692 207.258C222.171 206.996 221.492 206.772 221.328 207.327C221.063 208.187 222.936 209.438 224.208 211.275Z" fill="#191919"/>
<path d="M122.678 23.592C118.214 29.1915 116.136 38.7675 115.355 45.918C111.252 83.49 144.201 100.736 142.101 98.085C140.621 96.2175 122.277 84.7725 117.756 62.964C114.387 46.7205 119.856 28.689 124.583 23.7135C126.073 22.1488 128.007 21.0774 130.124 20.643C131.106 20.4135 133.014 20.2065 132.257 19.893C131.135 19.6437 129.973 19.6386 128.85 19.878C126.426 20.3684 124.246 21.6802 122.678 23.592Z" fill="#191919"/>
<path d="M169.169 64.4429C168.819 64.4182 168.467 64.4258 168.119 64.4654C167.631 64.5449 167.355 64.6964 167.639 64.8854C168.495 65.4539 174.498 66.0224 177.879 71.7854C178.521 72.8824 178.972 74.0804 179.213 75.3284C180.155 80.2004 177.132 83.0969 179.813 87.2159C182.186 90.8729 186.863 91.0139 188.339 95.1029C189.659 98.7779 187.868 103.203 184.964 106.203C183.12 107.983 181.024 109.482 178.745 110.653C176.366 112.143 184.145 111.016 188.171 104.929C190.871 100.863 191.021 96.7064 189.704 93.8654C187.68 89.4974 183.051 89.3219 181.154 86.0924C180.54 85.0808 180.29 83.8903 180.444 82.7174C180.638 80.5919 182.306 76.5224 179.66 71.4674C178.648 69.5045 177.155 67.8305 175.32 66.602C173.485 65.3734 171.369 64.6305 169.169 64.4429Z" fill="#191919"/>
<path d="M165.396 72.117C164.729 71.7105 161.661 72.7005 160.916 72.894C156.347 74.1447 151.623 74.7347 146.888 74.646C146.183 74.703 144.585 74.7885 144.845 75.3855C145.158 76.1025 147.897 76.3005 148.686 76.3005C148.778 76.3005 149.166 76.3005 149.745 76.2765C149.031 77.3114 148.469 78.4434 148.076 79.638C146.757 83.718 145.742 88.5345 147.155 92.577C147.651 94.0894 148.52 95.452 149.684 96.5385C149.767 96.6268 149.856 96.7104 149.949 96.789C149.097 100.293 149.349 100.347 149.577 100.608C149.694 100.709 149.835 100.778 149.986 100.808C150.138 100.839 150.294 100.83 150.441 100.782C150.588 100.735 150.72 100.651 150.825 100.537C150.93 100.424 151.004 100.286 151.04 100.136C151.056 100.059 151.307 98.748 151.467 97.788C151.544 97.827 151.617 97.866 151.68 97.9035C152.346 98.2545 154.634 98.919 154.401 98.1465C154.001 96.8175 147.74 95.823 148.206 87.219C148.467 82.383 150.182 79.32 150.896 76.224C154.436 76.0515 160.76 75.1545 163.88 73.674C166.911 72.234 164.052 71.0565 166.967 80.8905C168.078 83.991 169.979 88.674 172.727 90.918C172.833 91.0117 172.951 91.0914 173.078 91.155C173.268 91.2375 173.466 91.2225 173.528 91.0245C173.706 90.504 172.793 88.9755 172.514 88.503C170.955 86.0054 169.667 83.3483 168.674 80.577C166.217 73.8495 167.565 67.4415 166.349 67.9965C165.627 68.3265 165.384 71.241 165.396 72.117Z" fill="#191919"/>
<path d="M143.32 71.5603C142.788 71.7598 142.234 71.8952 141.67 71.9638C138.208 72.5353 134.646 72.9088 131.932 75.5638C131.067 76.4301 130.383 77.4597 129.92 78.5927C129.456 79.7258 129.223 80.9397 129.232 82.1638C129.215 82.7293 129.265 83.2948 129.382 83.8483C129.48 84.2218 129.646 84.4258 129.823 84.1993C130.476 83.3638 130.033 79.6633 133.573 76.3993C137.709 73.2613 142.59 74.3173 144.546 72.7993C146.733 71.1043 146.818 68.5993 149.172 65.9098C150.952 63.879 153.361 62.5028 156.015 62.0008C161.898 60.8728 166.465 64.7713 166.126 63.5323C165.858 62.5528 161.977 59.9233 157.767 60.1198C155.368 60.2032 153.032 60.9065 150.985 62.1613C148.826 63.5187 147.066 65.4252 145.885 67.6858C145.374 69.1747 144.492 70.5084 143.32 71.5603Z" fill="#191919"/>
<path d="M182.565 104.769C182.993 104.255 183.378 103.706 183.716 103.129C184.75 101.625 185.237 99.8113 185.097 97.991C184.957 96.1706 184.198 94.4531 182.946 93.1243C182.13 92.3608 181.212 91.7146 180.218 91.2043C171.719 86.2723 178.911 78.5488 174.647 72.1543C172.386 69.2773 169.311 69.3148 169.877 69.9373C170.442 70.5598 172.391 71.1028 173.535 73.3048C175.485 77.0548 173.408 81.1723 174.419 86.4718C174.648 87.6262 175.132 88.7148 175.836 89.6578C176.122 90.0335 176.43 90.3922 176.759 90.7318C178.078 91.8596 179.499 92.8638 181.002 93.7318C184.374 96.3013 183.917 100.464 181.208 103.782C178.115 107.562 173.094 108.457 174.198 108.918C175.188 109.327 179.682 108.228 182.565 104.769Z" fill="#191919"/>
<path d="M168.186 92.4088C168.868 92.4554 169.542 92.2387 170.069 91.8034C170.596 91.3681 170.936 90.7473 171.019 90.0688C171.037 89.6668 170.965 89.1688 170.593 89.3188C170.127 89.5003 169.935 90.4783 168.886 90.6838C167.786 90.7647 166.687 90.5206 165.724 89.9818C165.068 91.7336 164.085 93.3447 162.828 94.7293C161.45 96.1703 159.653 97.1398 157.692 97.4998C157.19 97.5729 156.683 97.6115 156.175 97.6153C156.175 98.8798 156.214 102.652 156.214 103.14C157.009 103.573 159.828 104.986 159.757 104.092C159.715 103.561 158.353 102.652 157.86 102.292C157.807 102.253 157.815 102.253 157.815 102.253C157.815 101.938 157.867 103.218 157.867 99.2128C159.788 98.8551 161.59 98.0273 163.114 96.8034C164.637 95.5795 165.833 93.9976 166.596 92.1988C167.12 92.3048 167.652 92.3749 168.186 92.4088Z" fill="#191919"/>
<path d="M159.414 79.4552C159.449 79.2625 159.439 79.0642 159.384 78.8762C159.343 78.8025 159.287 78.7382 159.22 78.6879C159.153 78.6375 159.075 78.6021 158.993 78.584C158.911 78.566 158.826 78.5657 158.743 78.5833C158.661 78.6008 158.583 78.6357 158.515 78.6857C158.107 78.9547 157.765 79.3139 157.516 79.7357C157.434 79.8857 154.366 85.2317 154.294 85.3817C154.939 85.7373 155.603 86.0578 156.282 86.3417C157.782 86.7167 157.92 85.6052 156.672 84.7307C157.683 83.0245 158.599 81.2633 159.414 79.4552Z" fill="#191919"/>
<path d="M160.473 84.7738C161.719 85.1488 162.136 83.7868 163.713 85.7563C163.803 85.8484 163.914 85.918 164.036 85.9593C164.158 86.0005 164.289 86.0124 164.416 85.9938C164.544 85.9753 164.665 85.9268 164.771 85.8524C164.876 85.778 164.962 85.6798 165.022 85.5658C165.249 84.8443 164.885 84.4408 164.367 83.8513C162.792 82.2763 159.825 83.0788 159.91 84.1033C159.941 84.2531 160.008 84.3929 160.107 84.51C160.205 84.6271 160.331 84.7178 160.473 84.7738Z" fill="#191919"/>
<path d="M155.047 81.0166C154.96 80.6124 154.794 80.2296 154.557 79.8906C154.32 79.5516 154.018 79.2633 153.669 79.0426C152.921 78.5995 152.049 78.4125 151.185 78.5101C150.18 78.8596 150.697 80.0521 151.627 80.1481C152.024 80.172 152.409 80.2869 152.754 80.4841C152.933 80.611 153.085 80.773 153.2 80.9601C153.316 81.1473 153.392 81.3558 153.424 81.5731C153.765 82.9711 155.301 82.6231 155.116 81.2731C155.086 81.2536 155.079 81.1621 155.047 81.0166Z" fill="#191919"/>
<path d="M152.138 92.5154C152.507 92.9652 152.971 93.3281 153.496 93.5783C154.022 93.8285 154.596 93.9598 155.178 93.9629C157.328 94.0349 159.443 92.1239 160.634 90.3359C160.794 89.8019 160.758 89.9534 160.74 89.6114C160.698 89.3765 160.574 89.164 160.391 89.0114C158.883 88.5854 159.819 88.8074 158.409 88.8824C157.439 88.9676 156.462 88.8428 155.544 88.5164C153.432 87.6464 152.721 86.3894 152.252 86.7029C151.557 86.5694 150.3 90.1664 152.138 92.5154ZM158.226 90.5954C157.835 91.0252 157.386 91.3992 156.893 91.7069C156.509 91.9864 156.059 92.1604 155.587 92.2115C155.115 92.2625 154.638 92.1889 154.203 91.9979C152.885 91.3484 152.801 89.7779 152.687 88.3469C153.347 89.1562 154.201 89.7866 155.169 90.1802C156.137 90.5739 157.188 90.7182 158.226 90.5999V90.5954Z" fill="#191919"/>
<path d="M153.113 68.1317C154.706 67.6352 156.491 65.5127 161.099 66.6752C161.698 66.8817 162.311 67.0427 162.935 67.1567C163.158 67.1871 163.385 67.179 163.605 67.1327C163.929 66.9977 164.034 66.5867 163.689 66.2192C162.536 64.9862 159.975 64.6202 158.318 64.6337C156.477 64.6487 153.494 65.4812 152.556 67.0562C152.416 67.2553 152.317 67.4808 152.267 67.7192C152.267 68.0027 152.615 68.2862 153.113 68.1317Z" fill="#191919"/>
<path d="M120.621 115.093C122.134 116.663 123.754 118.127 125.467 119.475C126.255 120.034 126.772 120.273 126.45 119.757C125.637 118.456 122.4 115.639 117.625 109.326C113.771 104.261 110.401 98.8452 107.56 93.1499C98.64 74.2634 98.85 50.9279 104.869 35.7464C108.441 26.7464 110.913 26.0084 110.257 22.2359C110.013 21.0969 109.912 19.9319 109.957 18.7679C110.042 17.0605 110.541 15.3995 111.412 13.9289C111.798 13.2903 112.245 12.6905 112.746 12.1379C113.062 11.7898 113.464 11.5311 113.911 11.3879C114.376 11.2674 114.864 11.269 115.329 11.3926C115.793 11.5162 116.217 11.7575 116.56 12.0932C116.904 12.4289 117.155 12.8476 117.289 13.3088C117.423 13.7699 117.435 14.2579 117.325 14.7254C117.187 15.3029 117.061 15.8114 117.475 15.4034C117.949 14.8576 118.194 14.1509 118.161 13.4294C118.125 12.696 117.84 11.9968 117.352 11.4479C116.889 10.8912 116.276 10.4789 115.585 10.2599C117.277 9.87588 118.608 9.04638 120.004 9.99288C121.876 11.7569 119.377 15.1184 119.494 16.2419C119.523 16.5119 119.808 16.6349 120.217 16.1954C121.974 14.3144 122.757 10.3814 120.606 8.94888C121.762 8.78388 123.582 8.47638 124.417 9.45888C126 11.3369 122.565 16.4999 123.736 16.4999C124.306 16.4999 125.179 14.8244 125.398 14.2604C125.625 13.6886 125.806 13.0998 125.94 12.4994C126.363 10.5869 126.144 8.67888 124.354 7.88238C122.604 7.29456 120.692 7.42289 119.035 8.23938C118.774 8.38938 118.951 8.36087 118.662 8.36237C117.472 8.36237 114.564 9.22038 114.129 10.0919C113.219 10.167 112.367 10.5675 111.729 11.2199C110.295 12.6479 109.251 14.4199 108.698 16.3664C108.144 18.313 108.099 20.369 108.567 22.3379C108.753 23.3508 108.595 24.3969 108.117 25.3094C105.07 30.332 102.746 35.7588 101.212 41.4299C96.612 60.0929 98.721 81.3944 108.262 98.1299C111.686 104.26 115.836 109.955 120.621 115.093Z" fill="#191919"/>
<path d="M114.768 24.0568C114.093 25.4623 113.001 26.1763 113.442 26.4193C113.811 26.6203 115.404 25.8718 115.98 23.7193C116.212 22.7283 116.228 21.6988 116.025 20.7013C115.145 16.1518 111.975 13.6408 113.991 17.8828C114.857 19.7098 115.65 22.2343 114.768 24.0568Z" fill="#191919"/>
<path d="M134.184 38.3444C138.414 39.4919 138.366 39.3944 138.466 39.7229L139.542 43.7009C139.567 43.7915 139.621 43.8714 139.696 43.9283C139.771 43.9852 139.863 44.016 139.957 44.016C140.051 44.016 140.142 43.9852 140.217 43.9283C140.292 43.8714 140.346 43.7915 140.371 43.7009C141.52 39.4724 141.414 39.5189 141.751 39.4184L145.729 38.3444C145.82 38.3187 145.899 38.2642 145.956 38.1892C146.012 38.1143 146.043 38.0229 146.043 37.9289C146.043 37.835 146.012 37.7436 145.956 37.6686C145.899 37.5936 145.82 37.5391 145.729 37.5134C141.499 36.3659 141.547 36.4634 141.447 36.1349L140.371 32.1569C140.346 32.0663 140.292 31.9864 140.217 31.9295C140.142 31.8726 140.051 31.8418 139.957 31.8418C139.863 31.8418 139.771 31.8726 139.696 31.9295C139.621 31.9864 139.567 32.0663 139.542 32.1569C138.393 36.3854 138.492 36.3374 138.162 36.4394L134.184 37.5134C134.094 37.5391 134.014 37.5936 133.957 37.6686C133.901 37.7436 133.87 37.835 133.87 37.9289C133.87 38.0229 133.901 38.1143 133.957 38.1892C134.014 38.2642 134.094 38.3187 134.184 38.3444Z" fill="#415CF1"/>
<path d="M81.3089 51.2611C77.0789 50.1121 77.1269 50.2111 77.0264 49.8811L75.9509 45.9001C75.9257 45.8095 75.8715 45.7296 75.7966 45.6727C75.7217 45.6158 75.6302 45.585 75.5361 45.585C75.442 45.585 75.3506 45.6158 75.2757 45.6727C75.2008 45.7296 75.1466 45.8095 75.1214 45.9001C73.9739 50.1301 74.0714 50.0821 73.7414 50.1826L69.7634 51.2581C69.6727 51.2833 69.5929 51.3375 69.536 51.4124C69.4791 51.4873 69.4482 51.5788 69.4482 51.6728C69.4482 51.7669 69.4791 51.8584 69.536 51.9333C69.5929 52.0082 69.6727 52.0624 69.7634 52.0876C73.9934 53.2351 73.9454 53.1376 74.0459 53.4676L75.1214 57.4456C75.1466 57.5362 75.2008 57.6161 75.2757 57.673C75.3506 57.7299 75.442 57.7607 75.5361 57.7607C75.6302 57.7607 75.7217 57.7299 75.7966 57.673C75.8715 57.6161 75.9257 57.5362 75.9509 57.4456C77.1014 53.2051 77.0009 53.2561 77.3309 53.1541L81.3089 52.0801C81.3978 52.0546 81.476 52.0008 81.5317 51.927C81.5873 51.8531 81.6174 51.7631 81.6174 51.6706C81.6174 51.5781 81.5873 51.4881 81.5317 51.4142C81.476 51.3403 81.3978 51.2866 81.3089 51.2611Z" fill="#415CF1"/>
<path d="M167.568 22.2361C171.797 23.3836 171.75 23.2771 171.851 23.6146L172.925 27.5926C172.95 27.683 173.005 27.7625 173.08 27.8191C173.155 27.8757 173.246 27.9064 173.34 27.9064C173.434 27.9064 173.525 27.8757 173.6 27.8191C173.675 27.7625 173.73 27.683 173.756 27.5926C174.903 23.3626 174.798 23.4106 175.136 23.3101L179.112 22.2361C179.202 22.2104 179.282 22.1559 179.339 22.0809C179.395 22.006 179.426 21.9146 179.426 21.8206C179.426 21.7267 179.395 21.6353 179.339 21.5603C179.282 21.4853 179.202 21.4308 179.112 21.4051C174.884 20.2576 174.932 20.3551 174.83 20.0251L173.756 16.0486C173.73 15.9582 173.675 15.8787 173.6 15.8221C173.525 15.7655 173.434 15.7349 173.34 15.7349C173.246 15.7349 173.155 15.7655 173.08 15.8221C173.005 15.8787 172.95 15.9582 172.925 16.0486C171.777 20.2771 171.875 20.2291 171.546 20.3311L167.568 21.4051C167.478 21.4308 167.398 21.4853 167.342 21.5603C167.285 21.6353 167.254 21.7267 167.254 21.8206C167.254 21.9146 167.285 22.006 167.342 22.0809C167.398 22.1559 167.478 22.2104 167.568 22.2361Z" fill="#415CF1"/>
<path d="M79.9606 79.341C79.6156 79.0995 79.2106 79.098 79.0156 79.455C78.8827 79.7938 78.8428 80.1621 78.9001 80.5215C79.021 81.7351 78.6963 82.9512 77.9866 83.943C77.5325 84.4956 76.8995 84.8721 76.1971 85.0072C75.4948 85.1424 74.7673 85.0277 74.1405 84.6831C73.5138 84.3385 73.0272 83.7856 72.7651 83.1201C72.503 82.4547 72.4817 81.7185 72.7051 81.039C72.8799 80.5449 73.1738 80.1015 73.5607 79.7481C73.9477 79.3946 74.4158 79.142 74.9236 79.0125C76.0027 78.8135 77.1162 78.9302 78.1306 79.3485C80.1016 80.0055 79.4686 77.373 76.8886 76.4985C75.7623 76.1685 74.5593 76.2138 73.461 76.6275C72.3627 77.0412 71.4287 77.8009 70.8001 78.792C70.1823 79.7141 69.8426 80.7944 69.8214 81.9041C69.8002 83.0139 70.0984 84.1064 70.6805 85.0514C71.2627 85.9965 72.1042 86.7543 73.1048 87.2346C74.1055 87.7149 75.2231 87.8974 76.3246 87.7605C81.0331 87.138 82.6966 81.5295 79.9606 79.341Z" fill="#415CF1"/>
<path d="M171.15 44.7751C171.848 44.5638 172.594 44.5774 173.283 44.8141C173.448 44.8741 173.6 44.9251 173.679 44.9506C174.335 45.1696 174.51 44.4811 174.083 43.9756C173.618 43.4068 172.967 43.0206 172.244 42.8853C171.522 42.75 170.776 42.8743 170.136 43.2361C169.561 43.5284 169.068 43.9604 168.703 44.4926C168.338 45.0248 168.113 45.6402 168.048 46.2822C167.982 46.9242 168.079 47.5723 168.33 48.167C168.58 48.7618 168.976 49.2841 169.481 49.6861C169.962 50.0715 170.531 50.3339 171.136 50.4507C171.742 50.5676 172.367 50.5354 172.957 50.3569C173.548 50.1784 174.086 49.859 174.526 49.4263C174.965 48.9935 175.293 48.4603 175.481 47.8726C175.623 47.4273 175.674 46.958 175.631 46.4926C175.585 46.204 175.495 45.9242 175.364 45.6631C174.792 44.5216 174.053 44.5846 174.053 45.3496C174.147 46.1348 174.015 46.9306 173.672 47.6431C173.529 47.9006 173.334 48.1253 173.099 48.3025C172.864 48.4798 172.595 48.6057 172.308 48.6721C171.801 48.7943 171.267 48.7172 170.815 48.4569C170.363 48.1966 170.029 47.7728 169.88 47.2731C169.732 46.7733 169.781 46.2355 170.017 45.7708C170.253 45.306 170.659 44.9496 171.15 44.7751Z" fill="#415CF1"/>
<path d="M95.1688 25.2374C95.0993 25.4142 95.0786 25.6064 95.1088 25.7939C95.2078 27.0869 94.4863 28.2404 93.2953 28.1564C92.9495 28.1311 92.6215 27.9934 92.3612 27.7644C92.1008 27.5353 91.9225 27.2275 91.8534 26.8877C91.7843 26.548 91.8281 26.1949 91.9782 25.8824C92.1283 25.5698 92.3764 25.3149 92.6848 25.1564C93.3387 24.9002 94.0672 24.9116 94.7128 25.1879C95.0908 25.3664 95.4013 25.2074 95.2918 24.7679C95.033 24.2805 94.6054 23.9042 94.0891 23.7093C93.5728 23.5143 93.0032 23.5142 92.4868 23.7089C92.0679 23.8456 91.6841 24.0726 91.3625 24.374C91.041 24.6753 90.7895 25.0436 90.626 25.4528C90.4625 25.8621 90.3908 26.3022 90.4161 26.7421C90.4414 27.1821 90.563 27.6111 90.7723 27.9989C91.0628 28.5358 91.5113 28.9703 92.057 29.2437C92.6028 29.517 93.2194 29.6159 93.8233 29.527C94.4271 29.4381 94.9891 29.1657 95.4329 28.7466C95.8767 28.3276 96.1809 27.7822 96.3043 27.1844C96.5563 25.7264 95.4793 24.6944 95.1688 25.2374Z" fill="#415CF1"/>
<path d="M165.136 168.137C156.937 168.317 135.777 168.32 129.072 163.656C129.072 163.656 129.835 151.479 128.347 144.95C126.612 137.336 122.845 124.527 132.667 113.921C143.359 102.371 143.649 98.4287 143.649 98.4287L148.389 100.979C148.389 100.979 146.202 111.179 161.509 105.353L175.356 111.182C175.356 111.182 159.688 122.117 170.616 145.082L171.348 166.944C169.359 167.688 167.259 168.091 165.136 168.137Z" fill="#415CF1"/>
<path d="M162.798 108.266C162.648 107.618 161.074 108.293 158.271 109.028C155.644 109.718 151.593 110.481 149.271 109.112C148.886 108.904 148.532 108.643 148.221 108.335C147.132 107.452 146.407 106.198 146.185 104.814C146.073 103.868 146.058 102.913 146.14 101.964C146.103 101.352 145.498 101.244 145.104 102.414C144.833 103.242 144.745 104.119 144.845 104.985C144.945 105.85 145.231 106.684 145.683 107.429C148.222 111.659 152.472 111.9 157.303 110.729C158.749 110.413 160.158 109.943 161.503 109.328C161.928 109.127 162.9 108.69 162.798 108.266Z" fill="#191919"/>
<path d="M142.392 140.712C142.019 140.112 138.942 134.215 138.375 133.596C138.234 133.42 138.061 133.272 137.865 133.161C137.498 133.011 137.15 133.311 137.265 133.9C137.49 134.995 137.819 135.429 140.786 140.872C141.248 141.721 142.286 143.628 142.886 142.854C143.219 142.417 142.638 141.165 142.392 140.712Z" fill="#191919"/>
<path d="M227.469 250.639C226.691 247.17 223.269 241.573 221.351 238.927C220.982 238.278 220.442 237.743 219.789 237.381C217.863 236.355 216.407 237.342 215.111 237.861C214.653 238.081 214.203 238.311 213.753 238.546C213.511 238.311 213.197 238.164 212.862 238.128C212.526 238.092 212.188 238.17 211.902 238.348C206.571 241.687 195.473 239.998 189.666 238.63C180.366 236.43 174.264 226.819 173.634 217.675C172.884 206.908 176.895 195.625 173.976 185.023C173.634 183.781 168.528 168.664 166.761 169.123C156.755 171.745 145.289 172.738 135.335 169.764C134.125 169.438 132.957 168.975 131.853 168.384C131.529 167.946 131.844 167.334 131.693 166.593C131.668 166.434 131.613 166.282 131.532 166.143C131.399 165.993 131.129 166.008 130.977 166.342C130.7 167.046 130.562 167.796 130.572 168.552C130.497 169.512 130.283 169.66 127.898 173.952C121.598 185.287 114.231 195.762 111.287 208.578C105.57 233.46 111.899 265.327 137.415 276.648C138.756 277.248 152.93 282.889 154.278 281.16C156.753 282.31 157.046 282.321 157.16 282.684C157.302 283.252 154.644 290.46 157.425 292.186C157.73 292.361 158.069 292.468 158.418 292.5C158.768 292.533 159.121 292.491 159.453 292.377C163.388 291.31 165.303 280.899 165.839 276.831C165.981 275.942 165.798 275.031 165.322 274.266C164.846 273.502 164.109 272.935 163.248 272.671C163.098 272.617 161.387 271.969 159.986 271.621C160.032 271.429 160.038 271.228 160.003 271.033C159.968 270.838 159.893 270.652 159.783 270.488C159.673 270.323 159.53 270.183 159.363 270.076C159.196 269.97 159.008 269.899 158.813 269.868C146.853 268.047 137.598 253.797 135.023 242.893C134.393 241.048 134.039 239.12 133.973 237.171C133.034 230.534 133.467 223.775 135.245 217.312C136.975 212.106 139.275 207.108 142.103 202.407C142.703 201.309 147.582 194.17 147.834 198.124C148.787 213.124 148.322 229.969 158.159 242.49C168.378 255.496 185.969 258.636 201.159 254.284C202.433 253.92 211.172 251.923 215.348 249.774C215.418 249.75 218.423 248.731 218.498 248.715C218.589 248.698 218.683 248.707 218.77 248.739C218.857 248.771 218.934 248.826 218.993 248.898C219.161 249.066 221.993 255.078 224.823 255.489C226.395 255.708 228.264 254.178 227.469 250.639ZM114.654 238.021C114.582 238.629 114.204 238.771 113.946 238.585C112.508 237.586 112.17 228.685 112.224 226.873C112.242 226.231 112.452 224.428 113.069 224.259C113.259 224.206 113.468 224.289 113.588 224.64C114.008 225.874 113.618 226.404 113.954 230.881C114.248 234.804 114.848 236.385 114.654 238.021ZM159.255 272.959C160.824 273.772 161.796 274.192 162.729 274.609C162.994 274.729 163.227 274.912 163.406 275.142C163.585 275.371 163.706 275.641 163.758 275.928C163.941 277.128 161.487 289.621 158.714 290.344C158.673 290.348 158.632 290.348 158.592 290.344H158.55C158.468 290.232 158.412 290.103 158.387 289.966C157.907 287.968 159.267 283.558 159.308 283.101C159.369 282.524 159.242 281.943 158.947 281.443C158.652 280.944 158.204 280.552 157.67 280.327C157.436 280.21 155.655 279.393 155.399 279.277L159.255 272.959ZM163.803 243.34C163.748 243.546 163.565 243.687 163.232 243.591C162.896 243.496 162.574 243.36 162.272 243.187C159.576 241.068 157.521 238.243 156.336 235.026C156.101 234.387 155.754 232.743 156.299 232.398C156.365 232.36 156.441 232.341 156.517 232.344C156.594 232.346 156.668 232.37 156.732 232.413C157.656 232.95 157.578 235.795 161.336 240.169C162.534 241.416 163.989 242.662 163.8 243.34H163.803ZM225.275 253.24C225.245 253.263 225.215 253.324 225.191 253.332C225.191 253.332 225.165 253.347 225.165 253.362C225.615 253.362 224.363 254.067 221.222 248.439C221.076 248.142 220.907 247.856 220.718 247.585C220.32 247.078 219.758 246.726 219.128 246.589C218.498 246.452 217.84 246.539 217.268 246.835C216.743 245.548 215.523 242.553 214.494 240.046C215.591 239.6 216.723 239.246 217.878 238.987C218.123 238.981 218.368 239.027 218.593 239.123C218.819 239.219 219.022 239.362 219.188 239.544C220.845 241.86 222.34 244.289 223.661 246.813C224.144 247.759 226.2 251.815 225.275 253.246V253.24Z" fill="#191919"/>
<path d="M179.592 112.152C195.403 119.552 209.196 153.468 212.832 163.04C215.518 147.728 211.968 137.916 203.107 126.509C201.271 124.482 199.578 122.33 198.04 120.069C195.147 114.987 195.406 107.963 190.497 102.582C186.115 112.5 179.592 112.152 179.592 112.152Z" fill="#415CF1"/>
<path d="M135.997 72.0931C137.004 71.9266 137.872 71.7286 138.642 71.5216C133.159 70.6519 127.543 71.238 122.358 73.2211C123.348 75.4156 125.658 80.2171 127.758 82.3051C127.609 81.0904 127.705 79.858 128.042 78.6813C128.378 77.5045 128.947 76.4073 129.716 75.4548C130.484 74.5023 131.436 73.7139 132.515 73.1364C133.594 72.559 134.779 72.2042 135.997 72.0931Z" fill="#415CF1"/>
<path d="M172.575 147.983L173.313 168.32C172.263 168.32 173.163 168.129 168.604 169.502C172.245 174.683 174.753 180.574 175.963 186.789C177.174 193.005 177.061 199.406 175.63 205.575C184.864 205.542 194.772 200.814 202.971 188.156C196.348 172.61 177.705 152.124 173.412 147.632C173.345 147.559 173.257 147.509 173.16 147.488C173.063 147.467 172.962 147.476 172.871 147.514C172.779 147.552 172.702 147.618 172.649 147.702C172.596 147.786 172.57 147.884 172.575 147.983Z" fill="#415CF1"/>
<path d="M128.736 165.371L126.769 164.19C126.999 160.89 127.057 157.568 127.006 154.262C126.828 142.724 125.109 142.773 124.201 137.513C123.316 132.371 124.863 126.8 124.834 122.76C124.822 120.96 124.177 121.295 120.225 117.303C113.832 110.641 108.378 103.137 104.016 94.9995C101.13 106.25 106.105 115.788 102.118 125C100.234 129.359 96.5788 132.65 93.5533 136.301C81.8848 150.417 77.5648 173.951 93.3028 184.917C99.7423 189.405 107.067 191.501 114.12 194.217C118.514 185.511 123.394 177.059 128.736 168.9V165.371Z" fill="#415CF1"/>
</svg>
